<?xml version="1.0" encoding="UTF-8"?>
<svg version="1.1" xmlns="http://www.w3.org/2000/svg" width="256" height="256">
<path d="M0 0 C0.98870087 0.00081573 0.98870087 0.00081573 1.99737549 0.00164795 C12.97851814 0.04318906 22.9941372 0.99005212 33.4375 4.375 C34.1190918 4.58930664 34.80068359 4.80361328 35.50292969 5.02441406 C49.73101879 9.60701941 62.12362402 16.56213576 73.4375 26.375 C74.24574219 27.03886719 75.05398437 27.70273437 75.88671875 28.38671875 C96.0786053 45.53555803 109.24638524 71.13337826 112.4375 97.375 C114.6510639 131.7113262 107.32015806 161.47407666 84.58569336 187.8269043 C66.36325907 208.34015889 39.69729638 222.78735796 12.03149414 224.59790039 C8.30992724 224.7148228 4.59839758 224.7552049 0.875 224.75 C-0.11370087 224.74918427 -0.11370087 224.74918427 -1.12237549 224.74835205 C-12.10351814 224.70681094 -22.1191372 223.75994788 -32.5625 220.375 C-33.2440918 220.16069336 -33.92568359 219.94638672 -34.62792969 219.72558594 C-48.85601879 215.14298059 -61.24862402 208.18786424 -72.5625 198.375 C-73.37074219 197.71113281 -74.17898437 197.04726562 -75.01171875 196.36328125 C-95.20109101 179.21657733 -108.37624274 153.61514277 -111.5625 127.375 C-111.87417763 122.5172366 -111.9443035 117.67947825 -111.9375 112.8125 C-111.93695618 112.15336609 -111.93641235 111.49423218 -111.93585205 110.81512451 C-111.89431094 99.83398186 -110.94744788 89.8183628 -107.5625 79.375 C-107.24104004 78.3526123 -107.24104004 78.3526123 -106.91308594 77.30957031 C-102.33048059 63.08148121 -95.37536424 50.68887598 -85.5625 39.375 C-84.89863281 38.56675781 -84.23476562 37.75851563 -83.55078125 36.92578125 C-62.77473431 12.46304206 -31.6910011 -0.04430055 0 0 Z " fill="#252363" transform="translate(127.5625,15.625)"/>
<path d="M0 0 C19.77648167 16.80474971 32.97721414 38.39794138 35.9375 64.49609375 C37.03553694 78.33808683 36.09701405 91.25132534 31.9375 104.49609375 C31.586875 105.62015625 31.23625 106.74421875 30.875 107.90234375 C28.67296557 114.20260893 25.73653052 119.94037872 22.375 125.68359375 C21.99899658 126.33215332 21.62299316 126.98071289 21.2355957 127.64892578 C19.22009187 130.95408716 17.69531169 133.24348985 13.9375 134.49609375 C13.525 133.60148438 13.1125 132.706875 12.6875 131.78515625 C8.9393277 123.85633024 4.87130298 117.03991385 -1.0625 110.49609375 C-2.11244141 109.32433594 -2.11244141 109.32433594 -3.18359375 108.12890625 C-8.53415995 102.46360086 -14.38048277 98.45053345 -21.0625 94.49609375 C-22.0525 93.83609375 -23.0425 93.17609375 -24.0625 92.49609375 C-22.97028163 89.31873121 -21.57778604 86.74137071 -19.6875 83.99609375 C-12.54644532 72.72297479 -11.64779796 60.52488583 -14.3125 47.74609375 C-15.63786669 42.57408141 -17.22805775 38.02346225 -20.0625 33.49609375 C-20.67544922 32.49835938 -20.67544922 32.49835938 -21.30078125 31.48046875 C-27.83101136 21.84148121 -39.27362027 15.27253588 -50.58984375 12.8203125 C-63.11709045 11.17771933 -75.02863567 12.1061424 -85.828125 19.3515625 C-87.34911171 20.54136662 -88.84295785 21.76762456 -90.29296875 23.04296875 C-92.0625 24.49609375 -92.0625 24.49609375 -95.0625 25.49609375 C-95.76924629 26.80862257 -96.42434656 28.14888092 -97.0625 29.49609375 C-97.84625 30.52734375 -98.63 31.55859375 -99.4375 32.62109375 C-104.13899653 39.11694842 -106.70306905 46.48797221 -107.0625 54.49609375 C-107.12566406 55.38941406 -107.18882813 56.28273438 -107.25390625 57.203125 C-107.71243736 68.48890692 -104.56774402 78.078743 -98.234375 87.375 C-97.0625 89.49609375 -97.0625 89.49609375 -97.0625 93.49609375 C-98.8984375 94.8828125 -98.8984375 94.8828125 -101.4375 96.18359375 C-107.42764372 99.55093443 -112.17718444 103.69112877 -117.0625 108.49609375 C-117.76375 109.18445313 -118.465 109.8728125 -119.1875 110.58203125 C-125.50771314 117.22319272 -131.14678736 125.74895584 -134.0625 134.49609375 C-141.76425655 131.46920253 -145.20123327 121.51520832 -148.3125 114.43359375 C-153.52218168 101.72806689 -156.45215144 89.50990986 -156.375 75.74609375 C-156.36936035 74.68841797 -156.3637207 73.63074219 -156.35791016 72.54101562 C-156.23297015 64.47063339 -155.49776736 57.23544723 -153.0625 49.49609375 C-152.86914062 48.8736377 -152.67578125 48.25118164 -152.4765625 47.60986328 C-144.78843847 23.49549277 -128.44929686 2.73381713 -106.0625 -9.50390625 C-71.49145388 -26.44331165 -30.70539057 -24.21316038 0 0 Z " fill="#00ACEE" transform="translate(188.0625,52.50390625)"/>
<path d="M0 0 C0.98870087 0.00081573 0.98870087 0.00081573 1.99737549 0.00164795 C12.97851814 0.04318906 22.9941372 0.99005212 33.4375 4.375 C34.1190918 4.58930664 34.80068359 4.80361328 35.50292969 5.02441406 C49.73101879 9.60701941 62.12362402 16.56213576 73.4375 26.375 C74.24574219 27.03886719 75.05398437 27.70273437 75.88671875 28.38671875 C96.0786053 45.53555803 109.24638524 71.13337826 112.4375 97.375 C114.6510639 131.7113262 107.32015806 161.47407666 84.58569336 187.8269043 C66.36325907 208.34015889 39.69729638 222.78735796 12.03149414 224.59790039 C8.30992724 224.7148228 4.59839758 224.7552049 0.875 224.75 C-0.11370087 224.74918427 -0.11370087 224.74918427 -1.12237549 224.74835205 C-12.10351814 224.70681094 -22.1191372 223.75994788 -32.5625 220.375 C-33.2440918 220.16069336 -33.92568359 219.94638672 -34.62792969 219.72558594 C-48.85601879 215.14298059 -61.24862402 208.18786424 -72.5625 198.375 C-73.37074219 197.71113281 -74.17898437 197.04726562 -75.01171875 196.36328125 C-95.20109101 179.21657733 -108.37624274 153.61514277 -111.5625 127.375 C-111.87417763 122.5172366 -111.9443035 117.67947825 -111.9375 112.8125 C-111.93695618 112.15336609 -111.93641235 111.49423218 -111.93585205 110.81512451 C-111.89431094 99.83398186 -110.94744788 89.8183628 -107.5625 79.375 C-107.24104004 78.3526123 -107.24104004 78.3526123 -106.91308594 77.30957031 C-102.33048059 63.08148121 -95.37536424 50.68887598 -85.5625 39.375 C-84.89863281 38.56675781 -84.23476562 37.75851563 -83.55078125 36.92578125 C-62.77473431 12.46304206 -31.6910011 -0.04430055 0 0 Z M-69.5625 46.375 C-70.31144531 47.11363281 -71.06039062 47.85226563 -71.83203125 48.61328125 C-80.4429035 57.63176875 -86.17687274 68.53445736 -90.5 80.125 C-90.78238525 80.88022949 -91.06477051 81.63545898 -91.35571289 82.41357422 C-100.47204277 108.25667915 -95.59036532 134.54408649 -84.125 158.6875 C-81.77919262 163.2232225 -79.09973513 167.66142177 -75.5625 171.375 C-74.9025 171.375 -74.2425 171.375 -73.5625 171.375 C-73.49160156 171.93445313 -73.42070313 172.49390625 -73.34765625 173.0703125 C-70.75609632 180.67737896 -61.07026573 186.95988013 -54.5625 191.375 C-53.76585937 191.93832031 -52.96921875 192.50164062 -52.1484375 193.08203125 C-30.91128023 207.45939878 -6.14623281 210.98723955 18.82421875 207.125 C34.42501461 203.88678075 50.43189233 197.03303946 62.4375 186.375 C62.4375 185.715 62.4375 185.055 62.4375 184.375 C63.00984375 184.12621094 63.5821875 183.87742188 64.171875 183.62109375 C66.77250678 182.19074627 68.58496599 180.52835326 70.6875 178.4375 C71.39390625 177.74785156 72.1003125 177.05820313 72.828125 176.34765625 C74.75357549 174.41188926 74.75357549 174.41188926 74.4375 171.375 C75.00855469 171.17648438 75.57960937 170.97796875 76.16796875 170.7734375 C79.33459513 168.82222882 80.89513863 166.12878455 82.75 163 C83.13808838 162.34878174 83.52617676 161.69756348 83.92602539 161.02661133 C96.74679875 138.49894377 100.13756417 111.88833129 93.76171875 86.8125 C89.07259717 70.29064501 80.25489793 56.7561637 68.4375 44.375 C67.91027344 43.77300781 67.38304687 43.17101562 66.83984375 42.55078125 C51.88100971 26.13814748 27.88921259 17.46311956 6.17675781 16.24853516 C-23.58384398 15.23323431 -48.72758749 25.2438214 -69.5625 46.375 Z " fill="#2D3192" transform="translate(127.5625,15.625)"/>
<path d="M0 0 C9.21013193 2.34561572 18.69954801 1.64961555 27.609375 -1.4140625 C32.56989184 -2.86614107 36.0826445 -1.82936706 40.5703125 0.27734375 C55.34228126 8.37931641 67.30801789 20.77137516 72.7578125 36.95703125 C73.13991553 39.28287579 73.48392059 41.61597619 73.7578125 43.95703125 C51.23093297 60.30718574 25.64011751 69.44527279 -2.50292969 65.65234375 C-18.57774796 62.85548234 -33.06704229 56.5108313 -46.2421875 46.95703125 C-46.86609375 46.51746094 -47.49 46.07789063 -48.1328125 45.625 C-50.03809153 42.76037273 -49.5741108 40.29722784 -49.2421875 36.95703125 C-43.07730138 19.9094362 -30.37201326 6.65705456 -14.06640625 -1.046875 C-8.80827849 -2.90140139 -5.23897382 -1.68530844 0 0 Z " fill="#1B74BB" transform="translate(116.2421875,158.04296875)"/>
<path d="M0 0 C6.30080524 4.47982784 11.92473197 11.7276776 13.3125 19.4375 C14.20123036 30.72766721 12.60221318 39.69255246 5.19140625 48.46484375 C-1.73775505 55.73974283 -9.76156716 58.49376211 -19.75 58.875 C-25.51466425 58.70523396 -29.76118013 57.38408385 -34.6875 54.4375 C-35.73744141 53.81875 -35.73744141 53.81875 -36.80859375 53.1875 C-44.18574415 48.27869671 -48.3361054 40.87045608 -50.6875 32.4375 C-51.56805277 24.27702844 -50.98966839 17.4871591 -46.6875 10.4375 C-46.26339844 9.73882812 -45.83929688 9.04015625 -45.40234375 8.3203125 C-34.72335 -7.44533287 -15.737631 -9.39997249 0 0 Z " fill="#1B74BB" transform="translate(146.6875,85.5625)"/>
</svg>
